<?xml version="1.0" encoding="UTF-8"?>
<svg version="1.1" xmlns="http://www.w3.org/2000/svg" width="236" height="242" viewBox="0 0 236 242">
<path d="M0 0 C77.88 0 155.76 0 236 0 C236 79.86 236 159.72 236 242 C158.12 242 80.24 242 0 242 C0 162.14 0 82.28 0 0 Z " fill="#642723" transform="translate(0,0)"/>
<path d="M0 0 C41.91 0 83.82 0 127 0 C127 14.19 127 28.38 127 43 C121.06 43.66 115.12 44.32 109 45 C93.20331923 48.36650574 79.499254 54.71627108 67 65 C65.52080078 66.21623047 65.52080078 66.21623047 64.01171875 67.45703125 C45.50955256 83.24331013 33.96681272 106.34452965 31.76611328 130.57519531 C31.46748069 136.07386082 31.61290818 141.51009637 32 147 C32.10828125 148.65128906 32.10828125 148.65128906 32.21875 150.3359375 C35.071595 175.55768078 48.17624063 198.41593784 67.20703125 214.875 C85.55251252 228.83296058 104.09667071 234.23820544 127 236 C127 222.14 127 208.28 127 194 C132.28 193.67 137.56 193.34 143 193 C146.21374932 192.37517345 149.10011842 191.76138432 152.1875 190.8125 C152.93596191 190.59255371 153.68442383 190.37260742 154.45556641 190.14599609 C161.28414711 188.06163574 167.67819641 185.32079177 174 182 C175.00417969 181.48824219 176.00835937 180.97648438 177.04296875 180.44921875 C185.16846494 176.04484242 191.50989985 170.48086815 198 164 C199.09634766 162.92105469 199.09634766 162.92105469 200.21484375 161.8203125 C219.39713989 141.68839774 224.88875336 115.32874376 224.37109375 88.4609375 C223.57900781 65.97246192 211.96008175 42.67757721 195.625 27.25 C177.90061351 12.05766872 159.33650741 3.94613715 136 1 C136 0.67 136 0.34 136 0 C169 0 202 0 236 0 C236 79.86 236 159.72 236 242 C158.12 242 80.24 242 0 242 C0 162.14 0 82.28 0 0 Z " fill="#FEFDFD" transform="translate(0,0)"/>
<path d="M0 0 C1.07911652 0.00141495 2.15823303 0.0028299 3.27005005 0.00428772 C6.70349952 0.00986781 10.13688286 0.0224167 13.5703125 0.03515625 C15.90364489 0.04017382 18.2369783 0.04473628 20.5703125 0.04882812 C26.27867117 0.05983073 31.98698063 0.07708169 37.6953125 0.09765625 C37.6953125 6.69765625 37.6953125 13.29765625 37.6953125 20.09765625 C36.24761475 20.09652832 34.79991699 20.09540039 33.30834961 20.09423828 C27.92009612 20.09791845 22.53273456 20.14079306 17.14477539 20.1953125 C14.8160579 20.21344363 12.48723304 20.22104627 10.15844727 20.21777344 C6.80401003 20.21490823 3.45178626 20.25031045 0.09765625 20.29296875 C-1.45587303 20.27932785 -1.45587303 20.27932785 -3.04078674 20.26541138 C-9.10757538 20.38648606 -12.62216855 21.23434202 -17.10105896 25.42282104 C-18.90617213 27.93461517 -19.14292762 30.098241 -18.875 33.1328125 C-17.85404917 36.65019789 -15.91026429 38.554117 -13.3046875 41.09765625 C-10.69899956 42.40050022 -8.75957309 42.22422006 -5.84375 42.23828125 C-4.73128906 42.25761719 -3.61882812 42.27695313 -2.47265625 42.296875 C-0.14990663 42.33016689 2.17310707 42.34891371 4.49609375 42.3515625 C15.37549305 42.5883421 24.99341307 45.50243638 33.0078125 53.1328125 C39.0124102 60.12427695 41.09746832 67.09345859 40.96484375 76.16015625 C40.13220072 85.23475857 35.37835781 92.13233235 28.6953125 98.09765625 C22.21008874 102.62650418 16.60960999 104.22809372 8.71166992 104.21118164 C7.53082321 104.21110611 6.3499765 104.21103058 5.13334656 104.21095276 C3.86860001 104.20579147 2.60385345 104.20063019 1.30078125 104.1953125 C-0.00171066 104.19389755 -1.30420258 104.1924826 -2.64616394 104.19102478 C-6.09685204 104.1872198 -9.54749758 104.17740689 -12.99816895 104.1663208 C-16.52416396 104.15606314 -20.05016611 104.15146294 -23.57617188 104.14648438 C-30.48571459 104.13631431 -37.39514064 104.11673754 -44.3046875 104.09765625 C-44.3046875 118.28765625 -44.3046875 132.47765625 -44.3046875 147.09765625 C-50.9046875 147.09765625 -57.5046875 147.09765625 -64.3046875 147.09765625 C-64.3046875 132.90765625 -64.3046875 118.71765625 -64.3046875 104.09765625 C-75.5246875 104.09765625 -86.7446875 104.09765625 -98.3046875 104.09765625 C-98.3046875 118.28765625 -98.3046875 132.47765625 -98.3046875 147.09765625 C-104.9046875 147.09765625 -111.5046875 147.09765625 -118.3046875 147.09765625 C-118.3046875 112.77765625 -118.3046875 78.45765625 -118.3046875 43.09765625 C-111.7046875 43.09765625 -105.1046875 43.09765625 -98.3046875 43.09765625 C-98.3046875 56.95765625 -98.3046875 70.81765625 -98.3046875 85.09765625 C-87.0846875 85.09765625 -75.8646875 85.09765625 -64.3046875 85.09765625 C-64.3046875 71.23765625 -64.3046875 57.37765625 -64.3046875 43.09765625 C-57.7046875 43.09765625 -51.1046875 43.09765625 -44.3046875 43.09765625 C-44.3046875 56.95765625 -44.3046875 70.81765625 -44.3046875 85.09765625 C-36.72355477 85.02363172 -29.14359605 84.94077249 -21.56298828 84.83520508 C-18.9849254 84.80197844 -16.40679017 84.77393952 -13.82861328 84.7512207 C-10.11980396 84.71763418 -6.4116563 84.66531381 -2.703125 84.609375 C-1.55290863 84.60298508 -0.40269226 84.59659515 0.78237915 84.5900116 C8.67006659 84.47274791 8.67006659 84.47274791 15.6953125 81.09765625 C17.66653231 78.14082654 18.07646419 77.17227472 18.2578125 73.78515625 C18.32097656 73.04652344 18.38414062 72.30789062 18.44921875 71.546875 C17.40813359 68.16469677 15.80592328 66.49024314 13.0559082 64.30004883 C7.33247721 61.3847631 0.25399639 62.52720201 -5.99414062 62.6875 C-16.73552802 62.6995622 -24.81008603 59.52157431 -32.8046875 52.28515625 C-39.9146427 44.37533109 -41.29872383 36.59696019 -40.8046875 26.19921875 C-40.04429726 17.86914364 -35.55955026 12.89766613 -29.3671875 7.66015625 C-20.00481973 0.69803569 -11.40190695 -0.05653902 0 0 Z " fill="#FCFAF9" transform="translate(171.3046875,46.90234375)"/>
<path d="M0 0 C0 15.51 0 31.02 0 47 C-6.6 47 -13.2 47 -20 47 C-20 60.86 -20 74.72 -20 89 C-31.22 89 -42.44 89 -54 89 C-54 75.14 -54 61.28 -54 47 C-60.6 47 -67.2 47 -74 47 C-74 81.32 -74 115.64 -74 151 C-67.4 151 -60.8 151 -54 151 C-54 136.81 -54 122.62 -54 108 C-42.78 108 -31.56 108 -20 108 C-20 122.19 -20 136.38 -20 151 C-13.4 151 -6.8 151 0 151 C0 164.86 0 178.72 0 193 C-25.67740223 193 -45.89769805 185.09812601 -65 168 C-65.62132813 167.46117187 -66.24265625 166.92234375 -66.8828125 166.3671875 C-83.62591774 150.87008079 -94.3926658 126.60532788 -96 104 C-96.05043457 103.29125732 -96.10086914 102.58251465 -96.15283203 101.85229492 C-97.49831321 77.87603822 -90.37824536 54.57106201 -75 36 C-74.31292969 35.16210938 -73.62585938 34.32421875 -72.91796875 33.4609375 C-59.43146362 17.76313153 -42.85836097 7.44503446 -23 2 C-21.66195312 1.63261719 -21.66195312 1.63261719 -20.296875 1.2578125 C-13.2885546 -0.39253392 -7.53662433 0 0 0 Z " fill="#D76435" transform="translate(127,43)"/>
</svg>
